<svg width="26" height="26" viewBox="0 0 26 26" fill="none" xmlns="http://www.w3.org/2000/svg">
<path fill-rule="evenodd" clip-rule="evenodd" d="M14.7729 5.91794C15.2626 5.61755 15.9052 5.76766 16.2082 6.25321L20.0273 12.3742C20.1647 12.5554 20.2375 12.7761 20.2368 13C20.2375 13.2239 20.1647 13.4446 20.0273 13.6258L16.2082 19.7468C15.9052 20.2323 15.2626 20.3824 14.7729 20.0821C14.2832 19.7817 14.1319 19.1445 14.4348 18.659L17.323 14.03H1.54268C0.966846 14.03 0.50004 13.5671 0.50004 12.9962C0.50004 12.4252 0.966846 11.9624 1.54268 11.9624H17.3182L14.4348 7.341C14.1319 6.85545 14.2832 6.21832 14.7729 5.91794Z" fill="#00FF62"/>
</svg>
