<svg width="576" height="45" viewBox="0 0 576 45" fill="none" xmlns="http://www.w3.org/2000/svg">
<g clip-path="url(#clip0_0_481)">
<path d="M575.735 0H0V45H575.735V0Z" fill="#00FF62"/>
<path d="M28.2408 19.5501L34.9759 9.95508H31.3081L26.4094 16.9401L28.2408 19.5501Z" fill="black"/>
<path d="M27.7395 24.3552L25.9329 27.0302L31.3528 35.0452H34.9759L27.7395 24.3552Z" fill="black"/>
<path d="M17.5103 9.95508H13.8425L22.1807 21.8351L13.237 35.0451H16.8601L25.8237 21.8051L17.5103 9.95508Z" fill="black"/>
<path d="M122.582 34.185L125.069 31.49L125.064 13.455L122.572 10.79L122.582 34.185Z" fill="black"/>
<path d="M124.542 8.7251L126.831 12.3701L138.4 13.7251V12.2301L124.542 8.7251Z" fill="black"/>
<path d="M124.523 36.2752L138.4 32.6102V31.2952L126.771 32.6502L124.523 36.2752Z" fill="black"/>
<path d="M140.594 29.6901C140.594 29.6901 138.876 27.5501 137.626 25.6651C137.526 25.4951 137.407 25.2801 137.308 25.0401C137.308 25.0401 137.308 25.0401 137.308 25.0351C137.219 24.8151 137.283 24.5751 137.477 24.3901C138.097 23.7951 139.224 23.4251 140.479 23.1951C143.045 22.8451 145.577 22.9351 145.577 22.9351V22.8151V22.7001C145.577 22.7001 143.045 22.7901 140.479 22.4401C139.224 22.2101 138.092 21.8401 137.477 21.2451C137.283 21.0601 137.219 20.8201 137.308 20.6001C137.308 20.6001 137.308 20.6001 137.308 20.5951C137.407 20.3551 137.526 20.1401 137.626 19.9701C138.876 18.0901 140.594 15.9451 140.594 15.9451C137.432 18.3851 136.067 20.4201 135.481 21.6301C135.109 22.4001 135.109 23.2351 135.481 24.0051C136.067 25.2151 137.432 27.2501 140.594 29.6901Z" fill="black"/>
<path d="M132.345 23.1849C132.786 23.3149 133.164 23.4949 133.417 23.7399C133.531 23.8499 133.566 23.9899 133.516 24.1149C133.456 24.2549 133.392 24.3799 133.332 24.4799C132.598 25.5799 131.749 26.8349 131.749 26.8349C133.595 25.4099 134.399 24.2149 134.737 23.5099C134.955 23.0599 134.955 22.5699 134.737 22.1199C134.394 21.4149 133.595 20.2249 131.749 18.7949C131.749 18.7949 132.598 20.0499 133.332 21.1499C133.392 21.2499 133.461 21.3749 133.516 21.5149C133.571 21.6449 133.531 21.7849 133.422 21.8899C133.169 22.1349 132.791 22.3149 132.35 22.4449C130.315 22.8049 128.071 22.7249 128.071 22.7249V22.8999C128.061 22.9049 130.305 22.8249 132.345 23.1849Z" fill="black"/>
<path d="M112.68 21.0601H45.498V23.9401H112.68V21.0601Z" fill="black"/>
<path d="M164.283 35.2351C157.3 35.2351 151.642 29.5351 151.642 22.5001C151.642 15.4651 157.3 9.76514 164.283 9.76514C171.266 9.76514 176.924 15.4651 176.924 22.5001C176.924 29.5351 171.266 35.2351 164.283 35.2351Z" fill="black"/>
<path d="M269.931 11.7651C275.807 11.7651 280.587 16.5801 280.587 22.5001C280.587 28.4201 275.807 33.2351 269.931 33.2351C264.054 33.2351 259.274 28.4201 259.274 22.5001C259.274 16.5801 264.059 11.7651 269.931 11.7651ZM269.931 9.76514C262.947 9.76514 257.289 15.4651 257.289 22.5001C257.289 29.5351 262.947 35.2351 269.931 35.2351C276.914 35.2351 282.572 29.5351 282.572 22.5001C282.572 15.4651 276.914 9.76514 269.931 9.76514Z" fill="black"/>
<path d="M187.283 23.8452H193.859V22.2052H187.283V18.8352L185.278 17.0752V30.7202H194.519V29.0852H187.283V23.8452Z" fill="black"/>
<path d="M186.479 15.4851L188.335 17.1201H194.519V15.4851H186.479Z" fill="black"/>
<path d="M202.783 18.145C205.815 18.145 207.796 19.7 208.421 22.255H206.237C205.815 20.79 204.59 19.855 202.783 19.855C200.554 19.855 198.907 21.43 198.907 24.41C198.907 27.43 200.554 29.01 202.783 29.01C204.59 29.01 205.791 28.145 206.237 26.61H208.421C207.796 29.03 205.815 30.72 202.783 30.72C199.304 30.72 196.832 28.275 196.832 24.41C196.832 20.59 199.304 18.145 202.783 18.145Z" fill="black"/>
<path d="M229.411 30.72C225.956 30.72 223.326 28.275 223.326 24.41C223.326 20.565 226.046 18.145 229.5 18.145C232.979 18.145 235.674 20.565 235.674 24.41C235.674 28.275 232.89 30.72 229.411 30.72ZM229.411 28.945C231.53 28.945 233.6 27.5 233.6 24.415C233.6 21.35 231.57 19.905 229.475 19.905C227.336 19.905 225.395 21.35 225.395 24.415C225.4 27.5 227.291 28.945 229.411 28.945Z" fill="black"/>
<path d="M245.774 21.3101L249.864 15.4851H247.636L244.663 19.7251L245.774 21.3101Z" fill="black"/>
<path d="M245.472 24.23L244.37 25.855L247.665 30.72H249.864L245.472 24.23Z" fill="black"/>
<path d="M239.258 15.4851H237.029L242.092 22.7001L236.662 30.7201H238.866L244.305 22.6801L239.258 15.4851Z" fill="black"/>
<path d="M212.759 20.3V14.28H210.729V30.72H212.759V23.99C212.759 23.985 212.759 23.975 212.759 23.97V20.3Z" fill="black"/>
<path d="M216.134 18.325C215.414 18.325 214.739 18.4499 214.129 18.6849V20.3449C214.566 20.1699 215.062 20.0799 215.598 20.0799C217.648 20.0799 219.008 21.3449 219.008 23.8349V30.7199H221.013V23.5449C221.018 20.055 218.854 18.325 216.134 18.325Z" fill="black"/>
<path d="M308.162 19.5501L314.897 9.95508H311.235L306.331 16.9401L308.162 19.5501Z" fill="black"/>
<path d="M307.666 24.3552L305.854 27.0302L311.274 35.0452H314.897L307.666 24.3552Z" fill="black"/>
<path d="M297.432 9.95508H293.764L302.102 21.8351L293.163 35.0451H296.782L305.745 21.8051L297.432 9.95508Z" fill="black"/>
<path d="M402.503 34.185L404.99 31.49L404.985 13.455L402.494 10.79L402.503 34.185Z" fill="black"/>
<path d="M404.469 8.7251L406.757 12.3701L418.321 13.7251V12.2301L404.469 8.7251Z" fill="black"/>
<path d="M404.444 36.2752L418.321 32.6102V31.2952L406.692 32.6502L404.444 36.2752Z" fill="black"/>
<path d="M420.515 29.6901C420.515 29.6901 418.798 27.5501 417.547 25.6651C417.448 25.4951 417.329 25.2801 417.229 25.0401C417.229 25.0401 417.229 25.0401 417.229 25.0351C417.14 24.8151 417.205 24.5751 417.398 24.3901C418.019 23.7951 419.145 23.4251 420.401 23.1951C422.967 22.8451 425.498 22.9351 425.498 22.9351V22.8151V22.7001C425.498 22.7001 422.967 22.7901 420.401 22.4401C419.145 22.2101 418.014 21.8401 417.398 21.2451C417.205 21.0601 417.14 20.8201 417.229 20.6001C417.229 20.6001 417.229 20.6001 417.229 20.5951C417.329 20.3551 417.448 20.1401 417.547 19.9701C418.798 18.0901 420.515 15.9451 420.515 15.9451C417.353 18.3851 415.989 20.4201 415.403 21.6301C415.031 22.4001 415.031 23.2351 415.403 24.0051C415.989 25.2151 417.353 27.2501 420.515 29.6901Z" fill="black"/>
<path d="M412.266 23.1849C412.708 23.3149 413.085 23.4949 413.338 23.7399C413.452 23.8499 413.487 23.9899 413.437 24.1149C413.378 24.2549 413.313 24.3799 413.254 24.4799C412.519 25.5799 411.671 26.8349 411.671 26.8349C413.517 25.4099 414.321 24.2149 414.658 23.5099C414.877 23.0599 414.877 22.5699 414.658 22.1199C414.316 21.4149 413.517 20.2249 411.671 18.7949C411.671 18.7949 412.519 20.0499 413.254 21.1499C413.313 21.2499 413.383 21.3749 413.437 21.5149C413.492 21.6449 413.452 21.7849 413.343 21.8899C413.09 22.1349 412.713 22.3149 412.271 22.4449C410.236 22.8049 407.993 22.7249 407.993 22.7249V22.8999C407.983 22.9049 410.226 22.8249 412.266 23.1849Z" fill="black"/>
<path d="M392.602 21.0601H325.419V23.9401H392.602V21.0601Z" fill="black"/>
<path d="M444.205 35.2351C437.221 35.2351 431.563 29.5351 431.563 22.5001C431.563 15.4651 437.221 9.76514 444.205 9.76514C451.188 9.76514 456.846 15.4651 456.846 22.5001C456.846 29.5351 451.188 35.2351 444.205 35.2351Z" fill="black"/>
<path d="M549.852 11.7651C555.728 11.7651 560.508 16.5801 560.508 22.5001C560.508 28.4201 555.728 33.2351 549.852 33.2351C543.976 33.2351 539.196 28.4201 539.196 22.5001C539.196 16.5801 543.981 11.7651 549.852 11.7651ZM549.852 9.76514C542.869 9.76514 537.211 15.4651 537.211 22.5001C537.211 29.5351 542.869 35.2351 549.852 35.2351C556.835 35.2351 562.493 29.5351 562.493 22.5001C562.498 15.4651 556.835 9.76514 549.852 9.76514Z" fill="black"/>
<path d="M467.204 23.8452H473.781V22.2052H467.204V18.8352L465.204 17.0752V30.7202H474.441V29.0852H467.204V23.8452Z" fill="black"/>
<path d="M466.4 15.4851L468.256 17.1201H474.441V15.4851H466.4Z" fill="black"/>
<path d="M482.704 18.145C485.737 18.145 487.717 19.7 488.343 22.255H486.159C485.737 20.79 484.511 19.855 482.704 19.855C480.476 19.855 478.828 21.43 478.828 24.41C478.828 27.43 480.476 29.01 482.704 29.01C484.511 29.01 485.712 28.145 486.159 26.61H488.343C487.717 29.03 485.737 30.72 482.704 30.72C479.225 30.72 476.754 28.275 476.754 24.41C476.754 20.59 479.225 18.145 482.704 18.145Z" fill="black"/>
<path d="M509.332 30.72C505.878 30.72 503.247 28.275 503.247 24.41C503.247 20.565 505.967 18.145 509.421 18.145C512.901 18.145 515.596 20.565 515.596 24.41C515.596 28.275 512.811 30.72 509.332 30.72ZM509.332 28.945C511.451 28.945 513.521 27.5 513.521 24.415C513.521 21.35 511.491 19.905 509.397 19.905C507.258 19.905 505.317 21.35 505.317 24.415C505.322 27.5 507.213 28.945 509.332 28.945Z" fill="black"/>
<path d="M525.696 21.3101L529.786 15.4851H527.562L524.584 19.7251L525.696 21.3101Z" fill="black"/>
<path d="M525.393 24.23L524.291 25.855L527.587 30.72H529.786L525.393 24.23Z" fill="black"/>
<path d="M519.179 15.4851H516.951L522.013 22.7001L516.588 30.7201H518.787L524.227 22.6801L519.179 15.4851Z" fill="black"/>
<path d="M492.681 20.3V14.28H490.651V30.72H492.681V23.99C492.681 23.985 492.681 23.975 492.681 23.97V20.3Z" fill="black"/>
<path d="M496.056 18.325C495.336 18.325 494.661 18.4499 494.05 18.6849V20.3449C494.487 20.1699 494.983 20.0799 495.519 20.0799C497.569 20.0799 498.929 21.3449 498.929 23.8349V30.7199H500.934V23.5449C500.939 20.055 498.775 18.325 496.056 18.325Z" fill="black"/>
</g>
<defs>
<clipPath id="clip0_0_481">
<rect width="575.735" height="45" fill="white"/>
</clipPath>
</defs>
</svg>
