<svg width="335" height="188" viewBox="0 0 335 188" fill="none" xmlns="http://www.w3.org/2000/svg">
<rect width="335" height="188" fill="#CCCCCC"/>
<path d="M133.843 90.92C133.466 90.309 132.608 89.451 131.919 88.853L130.749 89.646C131.451 90.27 132.257 91.193 132.595 91.791L133.843 90.92ZM132.179 94.066C131.841 94.69 131.412 95.275 130.944 95.834C130.801 95.171 130.671 94.417 130.567 93.637H133.947V92.168H130.411C130.307 91.024 130.255 89.815 130.281 88.606H128.656C128.669 89.789 128.708 90.998 128.812 92.168H126.316V90.413C127.07 90.257 127.785 90.088 128.435 89.893L127.395 88.58C126.069 89.009 124.054 89.425 122.234 89.672C122.403 90.023 122.611 90.595 122.676 90.972C123.339 90.894 124.054 90.803 124.756 90.686V92.168H122.299V93.637H124.756V95.379C123.729 95.561 122.793 95.704 122.052 95.821L122.429 97.381C123.118 97.251 123.924 97.082 124.756 96.913V98.798C124.756 99.006 124.678 99.071 124.444 99.071C124.21 99.084 123.456 99.097 122.728 99.058C122.949 99.487 123.209 100.189 123.274 100.618C124.327 100.631 125.107 100.566 125.614 100.319C126.134 100.072 126.316 99.656 126.316 98.811V96.588L128.435 96.159L128.318 94.755C127.655 94.872 126.979 95.002 126.316 95.119V93.637H128.955C129.111 94.911 129.332 96.094 129.618 97.121C128.721 97.862 127.72 98.499 126.719 98.954C127.096 99.305 127.525 99.838 127.746 100.202C128.578 99.773 129.397 99.24 130.151 98.616C130.71 99.89 131.438 100.67 132.387 100.67C133.57 100.67 134.051 100.098 134.298 97.823C133.882 97.654 133.362 97.303 133.024 96.939C132.959 98.473 132.803 99.097 132.53 99.097C132.14 99.097 131.737 98.499 131.386 97.498C132.231 96.653 132.959 95.704 133.544 94.651L132.179 94.066ZM144.178 90.673H138.224V90.023H144.178V90.673ZM144.178 92.35H138.224V91.687H144.178V92.35ZM145.751 88.931H136.729V93.442H145.751V88.931ZM142.163 97.693H146.167V96.354H142.163V95.379H146.986V94.014H135.52V95.379H140.59V98.681C139.758 98.421 139.121 97.94 138.718 97.056C138.822 96.679 138.926 96.289 139.017 95.873L137.47 95.639C137.171 97.381 136.378 98.759 135.052 99.578C135.403 99.799 136.001 100.371 136.222 100.657C136.976 100.137 137.574 99.448 138.042 98.59C139.134 100.098 140.746 100.423 143.125 100.423H146.83C146.908 99.981 147.142 99.305 147.35 98.954C146.427 98.993 143.931 98.993 143.203 98.993C142.852 98.993 142.501 98.98 142.163 98.954V97.693ZM153.837 96.172H154.773V96.588H153.837V96.172ZM153.018 97.238H155.657V95.509H153.018V97.238ZM152.485 95.132H156.151V97.615H152.485V95.132ZM151.302 98.473H157.399V94.287H151.302V98.473ZM152.979 91.388H155.644V91.908H152.979V91.388ZM154.968 93.065V92.675H156.944V90.608H151.757V92.675H153.668V93.065H150.704V93.91H158.062V93.065H154.968ZM150.262 98.902V90.192H158.452V98.902H150.262ZM148.832 88.918V100.618H150.262V100.163H158.452V100.618H159.96V88.918H148.832ZM164.978 94.69C165.004 94.144 165.017 93.624 165.017 93.091V92.987H170.841V88.489H169.242V91.427H165.017V88.684H163.457V93.091C163.457 95.288 163.275 97.693 161.663 99.461C162.027 99.721 162.586 100.306 162.833 100.683C164.029 99.409 164.575 97.849 164.822 96.237H169.632V100.631H171.27V94.69H164.978ZM178.641 98.746C177.302 98.746 176.925 98.304 176.925 97.173V90.309H185.934V88.944H174.884V90.309H175.404V97.069C175.404 99.461 176.483 100.163 178.771 100.163H183.893C184.933 100.163 186.09 100.15 186.584 100.02C186.506 99.656 186.415 98.954 186.363 98.577C185.83 98.681 184.79 98.746 183.971 98.746H178.641ZM182.411 92.987H180.279V91.921H182.411V92.987ZM183.945 90.907H178.836V94.001H183.945V90.907ZM178.758 95.613H179.772V97.03H178.758V95.613ZM177.51 98.07H181.098V94.573H177.51V98.07ZM183.997 97.03H182.944V95.613H183.997V97.03ZM185.336 94.573H181.67V98.07H185.336V94.573ZM191.901 96.016L190.692 96.471V93.039H191.888V91.57H190.692V88.658H189.249V91.57H187.858V93.039H189.249V96.991C188.638 97.199 188.092 97.381 187.624 97.524L188.131 99.097C189.314 98.629 190.822 98.018 192.187 97.433L191.901 96.016ZM197.868 91.934H196.451V91.011H197.868V91.934ZM197.868 94.014H196.451V93.078H197.868V94.014ZM193.656 93.078H195.099V94.014H193.656V93.078ZM193.656 91.011H195.099V91.934H193.656V91.011ZM197.296 99.214C196.893 99.214 196.828 99.162 196.828 98.759V97.771C196.919 98.005 197.01 98.291 197.049 98.447C197.231 98.356 197.53 98.304 199.051 98.135C199.103 98.278 199.142 98.408 199.181 98.525L199.896 98.187C199.74 97.693 199.415 96.874 199.103 96.263L198.414 96.523C198.531 96.796 198.661 97.108 198.778 97.394L197.855 97.472C198.141 96.978 198.44 96.354 198.635 95.769L197.699 95.483C197.569 96.211 197.218 96.991 197.101 97.199C197.023 97.342 196.932 97.446 196.828 97.511V95.249H199.311V89.789H195.125C195.281 89.438 195.45 89.061 195.619 88.645L193.968 88.437C193.903 88.84 193.773 89.334 193.63 89.789H192.304V95.249H193.526C193.409 97.16 193.11 98.616 191.42 99.474C191.732 99.734 192.135 100.267 192.304 100.631C194.319 99.526 194.748 97.641 194.917 95.249H195.502V98.772C195.502 100.046 195.814 100.436 197.088 100.436H198.596C199.545 100.436 199.896 100.085 200.039 98.837C199.688 98.759 199.155 98.551 198.882 98.369C198.843 99.071 198.778 99.214 198.466 99.214H197.296ZM203.497 91.037V95.821H202.665V91.037H203.497ZM204.901 97.238V89.62H201.261V98.395H202.665V97.238H204.901ZM211.323 93.871L210.283 94.326C210.439 94.534 210.608 94.755 210.764 94.989L208.775 95.106C209.139 94.716 209.477 94.287 209.763 93.871H211.323ZM211.063 90.166V90.933H206.864V90.166H211.063ZM210.27 99.188V98.213H212.493V97.056H210.27V96.159L211.401 96.081C211.479 96.237 211.531 96.393 211.583 96.523L212.701 96.003C212.48 95.392 211.895 94.521 211.362 93.871H212.909V92.701H206.864V92.129H212.493V88.97H205.499V92.987C205.499 95.067 205.382 97.94 203.991 99.903C204.316 100.046 204.914 100.462 205.161 100.709C206.461 98.85 206.786 96.055 206.851 93.871H208.177C207.865 94.339 207.54 94.716 207.41 94.846C207.215 95.08 207.007 95.236 206.799 95.275C206.955 95.626 207.176 96.25 207.254 96.536C207.462 96.445 207.761 96.38 208.879 96.276V97.056H206.838V98.213H208.879V99.188H206.136V100.397H212.948V99.188H210.27Z" fill="#212121"/>
</svg>
