<svg width="20" height="20" viewBox="0 0 20 20" fill="none" xmlns="http://www.w3.org/2000/svg">
<path fill-rule="evenodd" clip-rule="evenodd" d="M0.165768 4.49236C0.368627 4.30501 0.68496 4.31757 0.872318 4.52043L10.3674 14.8011C10.5548 15.004 10.5422 15.3203 10.3393 15.5077C10.1365 15.695 9.82014 15.6825 9.63278 15.4796L0.137699 5.19891C-0.0496581 4.99606 -0.0370913 4.67972 0.165768 4.49236Z" fill="#212121"/>
<path fill-rule="evenodd" clip-rule="evenodd" d="M9.66088 15.5077C9.45803 15.3203 9.44546 15.004 9.63282 14.8011L19.1279 4.52044C19.3152 4.31758 19.6316 4.30501 19.8344 4.49237C20.0373 4.67973 20.0499 4.99606 19.8625 5.19892L10.3674 15.4796C10.1801 15.6825 9.86374 15.695 9.66088 15.5077Z" fill="#212121"/>
</svg>
