<svg width="224" height="224" viewBox="0 0 224 224" fill="none" xmlns="http://www.w3.org/2000/svg">
<rect width="224" height="224" fill="#00FF62"/>
<path d="M82.866 97.984C82.404 97.326 81.438 96.346 80.626 95.66L79.828 96.206C80.654 96.92 81.592 97.928 82.026 98.586L82.866 97.984ZM81.606 101.036C81.13 101.932 80.514 102.786 79.772 103.584C79.534 102.66 79.338 101.582 79.198 100.392H83.202V99.398H79.086C78.974 98.152 78.918 96.808 78.918 95.408H77.854C77.868 96.78 77.924 98.124 78.05 99.398H74.844V96.962C75.698 96.78 76.51 96.556 77.182 96.318L76.44 95.464C75.124 95.954 72.87 96.43 70.91 96.724C71.05 96.976 71.19 97.34 71.246 97.592C72.072 97.48 72.954 97.34 73.822 97.172V99.398H70.826V100.392H73.822V102.842C72.604 103.094 71.47 103.332 70.63 103.472L70.924 104.522C71.764 104.34 72.772 104.102 73.822 103.878V106.72C73.822 106.972 73.738 107.042 73.486 107.042C73.248 107.056 72.422 107.07 71.526 107.028C71.68 107.322 71.862 107.798 71.918 108.078C73.052 108.078 73.808 108.05 74.242 107.882C74.676 107.714 74.844 107.406 74.844 106.734V103.626C75.698 103.43 76.566 103.234 77.42 103.024L77.35 102.086C76.524 102.268 75.67 102.45 74.844 102.632V100.392H78.134C78.316 101.904 78.582 103.29 78.918 104.452C77.924 105.376 76.776 106.146 75.6 106.72C75.866 106.944 76.16 107.294 76.314 107.546C77.364 107 78.358 106.3 79.268 105.488C79.912 107.126 80.752 108.106 81.858 108.106C82.908 108.106 83.272 107.434 83.468 105.124C83.174 105.026 82.81 104.788 82.586 104.564C82.502 106.356 82.334 107.07 81.956 107.07C81.256 107.07 80.626 106.174 80.094 104.704C81.074 103.71 81.9 102.604 82.53 101.414L81.606 101.036ZM94.584 97.788H87.346V96.654H94.584V97.788ZM94.584 99.678H87.346V98.544H94.584V99.678ZM95.62 95.856H86.324V100.476H95.62V95.856ZM91.63 104.83H96.25V103.906H91.63V102.352H97.16V101.414H84.868V102.352H90.608V106.566C89.404 106.244 88.508 105.6 87.962 104.34C88.102 103.892 88.228 103.43 88.326 102.94L87.276 102.8C86.898 104.844 86.016 106.412 84.56 107.35C84.784 107.518 85.19 107.91 85.33 108.092C86.24 107.42 86.968 106.552 87.514 105.46C88.648 107.35 90.426 107.798 93.24 107.798H97.048C97.104 107.49 97.272 107.042 97.412 106.804C96.698 106.818 93.8 106.818 93.282 106.818C92.694 106.818 92.134 106.79 91.63 106.734V104.83ZM104.132 103.248H105.784V104.06H104.132V103.248ZM103.488 104.606H106.456V102.702H103.488V104.606ZM102.592 102.1H107.352V105.208H102.592V102.1ZM101.78 105.866H108.206V101.456H101.78V105.866ZM103.096 98.012H106.862V98.936H103.096V98.012ZM105.392 100.196V99.566H107.758V97.396H102.228V99.566H104.51V100.196H100.828V100.854H109.214V100.196H105.392ZM100.17 106.608V96.738H109.83V106.608H100.17ZM99.204 95.856V108.05H100.17V107.504H109.83V108.05H110.824V95.856H99.204ZM115.878 102.03C115.92 101.414 115.934 100.784 115.934 100.154V99.776H122.248V95.31H121.198V98.754H115.934V95.45H114.898V100.154C114.898 102.688 114.702 105.32 112.938 107.35C113.176 107.518 113.554 107.882 113.722 108.12C115.038 106.65 115.584 104.886 115.794 103.066H121.674V108.078H122.738V102.03H115.878ZM130.508 106.454C129.01 106.454 128.464 105.964 128.464 104.774V96.864H138.6V95.926H126.868V96.864H127.442V104.704C127.442 106.748 128.478 107.42 130.62 107.42H136.78C137.858 107.42 138.922 107.406 139.286 107.294C139.23 107.07 139.16 106.594 139.118 106.3C138.614 106.398 137.55 106.454 136.794 106.454H130.508ZM135.254 100.112H132.062V98.516H135.254V100.112ZM136.276 97.774H131.082V100.868H136.276V97.774ZM130.438 102.576H132.3V104.648H130.438V102.576ZM129.57 105.404H133.21V101.82H129.57V105.404ZM136.99 104.648H135.044V102.576H136.99V104.648ZM137.914 101.82H134.148V105.404H137.914V101.82ZM151.256 102.744C151.046 103.64 150.584 104.578 150.444 104.816C150.318 105.054 150.192 105.222 150.038 105.236C150.136 105.418 150.248 105.782 150.276 105.936C150.444 105.838 150.766 105.768 152.628 105.53C152.684 105.698 152.74 105.852 152.782 105.992L153.342 105.698C153.174 105.18 152.768 104.284 152.39 103.626L151.872 103.85C152.054 104.186 152.25 104.578 152.39 104.956L150.976 105.11C151.326 104.522 151.676 103.752 151.942 102.982L151.256 102.744ZM144.984 103.542C144.452 103.752 143.92 103.948 143.402 104.13V99.664H144.9V98.684H143.402V95.45H142.422V98.684H140.77V99.664H142.422V104.508C141.708 104.774 141.064 104.984 140.546 105.166L140.882 106.216C142.1 105.74 143.696 105.11 145.166 104.48L144.984 103.542ZM146.426 99.958H148.652V101.554H146.426V99.958ZM146.426 97.564H148.652V99.132H146.426V97.564ZM151.858 99.132H149.59V97.564H151.858V99.132ZM151.858 101.554H149.59V99.958H151.858V101.554ZM150.556 107.056C150.038 107.056 149.968 106.986 149.968 106.608V102.408H152.81V96.696H147.924C148.106 96.304 148.316 95.842 148.526 95.38L147.42 95.226C147.336 95.66 147.126 96.234 146.944 96.696H145.502V102.408H147.238C147.042 104.592 146.538 106.398 144.48 107.35C144.704 107.518 144.998 107.882 145.11 108.12C147.378 106.972 147.952 104.914 148.176 102.408H149.058V106.608C149.058 107.644 149.352 107.924 150.458 107.924H152.418C153.258 107.924 153.524 107.574 153.622 106.328C153.37 106.272 153.02 106.132 152.81 105.992C152.768 106.902 152.698 107.056 152.32 107.056H150.556ZM79.04 128H80.314V122.484C81.084 121.714 81.616 121.322 82.4 121.322C83.408 121.322 83.842 121.924 83.842 123.352V128H85.116V123.184C85.116 121.238 84.388 120.202 82.792 120.202C81.756 120.202 80.972 120.776 80.272 121.476L80.314 119.908V116.856H79.04V128ZM90.4979 128.182C92.3599 128.182 94.0259 126.726 94.0259 124.206C94.0259 121.672 92.3599 120.202 90.4979 120.202C88.6359 120.202 86.9699 121.672 86.9699 124.206C86.9699 126.726 88.6359 128.182 90.4979 128.182ZM90.4979 127.118C89.1819 127.118 88.2999 125.956 88.2999 124.206C88.2999 122.456 89.1819 121.266 90.4979 121.266C91.8139 121.266 92.7099 122.456 92.7099 124.206C92.7099 125.956 91.8139 127.118 90.4979 127.118ZM97.6174 128H99.1014L101.803 120.398H100.543L99.1014 124.724C98.8774 125.466 98.6254 126.25 98.4014 126.964H98.3454C98.1074 126.25 97.8694 125.466 97.6314 124.724L96.2034 120.398H94.8734L97.6174 128ZM106.292 128.182C107.328 128.182 108.14 127.832 108.812 127.398L108.35 126.558C107.79 126.936 107.188 127.16 106.446 127.16C105.004 127.16 104.01 126.124 103.926 124.5H109.05C109.078 124.318 109.106 124.052 109.106 123.772C109.106 121.602 108.014 120.202 106.082 120.202C104.318 120.202 102.652 121.742 102.652 124.206C102.652 126.712 104.276 128.182 106.292 128.182ZM103.912 123.59C104.066 122.092 105.018 121.224 106.096 121.224C107.286 121.224 107.986 122.05 107.986 123.59H103.912ZM110.977 128H112.251V123.114C112.755 121.812 113.539 121.364 114.169 121.364C114.477 121.364 114.659 121.392 114.911 121.49L115.149 120.37C114.911 120.244 114.673 120.202 114.337 120.202C113.483 120.202 112.713 120.818 112.181 121.784H112.139L112.027 120.398H110.977V128ZM127.054 119.544H124.408V120.314H127.054V121.224H123.498V122.05H126.354L125.948 122.526C127.012 122.834 128.37 123.408 129.07 123.814L129.63 123.142C129 122.778 127.894 122.344 126.914 122.05H131.562V121.224H128.062V120.314H130.96V119.544H128.062V118.662H131.394V117.892H129.35C129.63 117.528 129.938 117.052 130.246 116.576L129.322 116.282C129.126 116.716 128.776 117.374 128.482 117.808L128.706 117.892H126.186L126.564 117.724C126.368 117.318 126.004 116.73 125.654 116.282L124.884 116.604C125.15 116.996 125.472 117.5 125.654 117.892H123.848V118.662H127.054V119.544ZM123.624 123.632C123.386 123.254 122.336 121.672 121.944 121.154V120.272H123.54V119.306H121.944V116.282H120.992V119.306H119.032V120.272H120.88C120.474 122.176 119.62 124.36 118.752 125.522C118.92 125.76 119.172 126.152 119.284 126.418C119.928 125.508 120.53 124.038 120.992 122.512V129.05H121.944V122.386C122.364 123.086 122.854 123.954 123.05 124.402L123.624 123.632ZM125.99 125.032L125.822 125.074H123.414V125.83H125.416C124.926 126.852 123.974 127.664 122.98 128.07C123.162 128.224 123.428 128.546 123.54 128.756C124.87 128.14 126.06 126.964 126.564 125.27L125.99 125.032ZM130.596 123.926C130.148 124.416 129.392 125.102 128.776 125.592C128.482 125.2 128.244 124.78 128.048 124.346V123.52H124.52V124.276H127.068V128.028C127.068 128.182 127.012 128.224 126.858 128.224H125.5C125.612 128.462 125.738 128.84 125.78 129.078C126.648 129.078 127.222 129.078 127.586 128.924C127.95 128.784 128.048 128.518 128.048 128.028V125.886C128.832 127.118 129.924 128.112 131.184 128.672C131.324 128.406 131.618 128.07 131.814 127.888C130.834 127.538 129.938 126.922 129.238 126.152C129.896 125.718 130.708 125.074 131.38 124.514L130.596 123.926ZM144.876 118.06C144.456 117.584 143.574 116.87 142.86 116.394L142.16 116.968C142.874 117.472 143.742 118.228 144.148 118.718L144.876 118.06ZM137.078 122.988H139.696V121.98H133.564V122.988H136.056V127.048C134.936 127.272 133.914 127.482 133.13 127.636L133.452 128.658C135.23 128.266 137.792 127.678 140.158 127.118L140.074 126.194C139.066 126.418 138.058 126.614 137.078 126.824V122.988ZM145.45 119.908V118.886H141.306C141.264 118.06 141.25 117.22 141.25 116.352H140.158C140.172 117.206 140.186 118.06 140.228 118.886H133.074V119.908H140.298C140.676 125.074 141.838 129.092 144.106 129.092C145.17 129.092 145.562 128.378 145.744 125.956C145.45 125.844 145.058 125.62 144.82 125.382C144.736 127.244 144.568 128.014 144.19 128.014C142.804 128.014 141.712 124.612 141.362 119.908H145.45Z" fill="#212121"/>
</svg>
